<svg width="28" height="30" viewBox="0 0 28 30" fill="none" xmlns="http://www.w3.org/2000/svg">
<g filter="url(#filter0_d_372_203)">
<path d="M20.75 18.25V8.25H10.75V7.625C10.75 6.591 11.591 5.75 12.625 5.75H14.5V2H12.625C11.1337 2.00185 9.70406 2.59508 8.64957 3.64957C7.59508 4.70406 7.00185 6.13373 7 7.625V8.25H4.5V12H7V18.25H4.5V22H13.25V18.25H10.75V12H17.035V18.25H14.5V22H23.25V18.25H20.75Z" fill="black"/>
<path d="M18.875 5.75C19.9105 5.75 20.75 4.91053 20.75 3.875C20.75 2.83947 19.9105 2 18.875 2C17.8395 2 17 2.83947 17 3.875C17 4.91053 17.8395 5.75 18.875 5.75Z" fill="black"/>
</g>
<defs>
<filter id="filter0_d_372_203" x="-2" y="0" width="32" height="32" filterUnits="userSpaceOnUse" color-interpolation-filters="sRGB">
<feFlood flood-opacity="0" result="BackgroundImageFix"/>
<feColorMatrix in="SourceAlpha" type="matrix" values="0 0 0 0 0 0 0 0 0 0 0 0 0 0 0 0 0 0 127 0" result="hardAlpha"/>
<feOffset dy="4"/>
<feGaussianBlur stdDeviation="2"/>
<feComposite in2="hardAlpha" operator="out"/>
<feColorMatrix type="matrix" values="0 0 0 0 0 0 0 0 0 0 0 0 0 0 0 0 0 0 0.25 0"/>
<feBlend mode="normal" in2="BackgroundImageFix" result="effect1_dropShadow_372_203"/>
<feBlend mode="normal" in="SourceGraphic" in2="effect1_dropShadow_372_203" result="shape"/>
</filter>
</defs>
</svg>
