<svg width="40" height="40" viewBox="0 0 40 40" fill="none" xmlns="http://www.w3.org/2000/svg">
<path d="M28.2808 14.8548C27.6712 15.1319 27.0141 15.314 26.3333 15.4011C27.03 14.9815 27.5683 14.3165 27.8216 13.5169C27.1645 13.9127 26.4362 14.1898 25.6683 14.3482C25.0429 13.6673 24.1641 13.2715 23.1666 13.2715C21.3062 13.2715 19.7862 14.7915 19.7862 16.6677C19.7862 16.9369 19.8179 17.1982 19.8733 17.4436C17.055 17.3011 14.5454 15.9473 12.8749 13.8969C12.582 14.3957 12.4158 14.9815 12.4158 15.599C12.4158 16.7786 13.0095 17.8236 13.9279 18.4173C13.3658 18.4173 12.8433 18.259 12.3841 18.0215V18.0452C12.3841 19.6919 13.5558 21.0694 15.1075 21.3782C14.6093 21.5145 14.0863 21.5335 13.5795 21.4336C13.7946 22.1084 14.2157 22.699 14.7837 23.1221C15.3517 23.5453 16.038 23.7798 16.7462 23.7927C15.5457 24.7431 14.0577 25.2568 12.5266 25.2494C12.2574 25.2494 11.9883 25.2336 11.7191 25.2019C13.2233 26.1677 15.0124 26.7298 16.9283 26.7298C23.1666 26.7298 26.5945 21.5523 26.5945 17.0636C26.5945 16.9132 26.5945 16.7707 26.5866 16.6202C27.2516 16.1452 27.8216 15.5436 28.2808 14.8548V14.8548Z" fill="white"/>
<rect x="0.5" y="0.5" width="39" height="39" rx="19.5" stroke="white"/>
</svg>
