<svg width="40" height="40" viewBox="0 0 40 40" fill="none" xmlns="http://www.w3.org/2000/svg">
<path d="M16.675 12.084H23.325C25.8584 12.084 27.9167 14.1423 27.9167 16.6757V23.3257C27.9167 24.5434 27.4329 25.7113 26.5718 26.5725C25.7107 27.4336 24.5428 27.9173 23.325 27.9173H16.675C14.1417 27.9173 12.0834 25.859 12.0834 23.3257V16.6757C12.0834 15.4579 12.5671 14.29 13.4282 13.4289C14.2893 12.5677 15.4573 12.084 16.675 12.084M16.5167 13.6673C15.7608 13.6673 15.0359 13.9676 14.5015 14.5021C13.967 15.0365 13.6667 15.7615 13.6667 16.5173V23.484C13.6667 25.0594 14.9413 26.334 16.5167 26.334H23.4834C24.2392 26.334 24.9642 26.0337 25.4986 25.4992C26.0331 24.9648 26.3334 24.2399 26.3334 23.484V16.5173C26.3334 14.9419 25.0588 13.6673 23.4834 13.6673H16.5167ZM24.1563 14.8548C24.4187 14.8548 24.6704 14.9591 24.856 15.1447C25.0416 15.3302 25.1459 15.5819 25.1459 15.8444C25.1459 16.1069 25.0416 16.3586 24.856 16.5441C24.6704 16.7297 24.4187 16.834 24.1563 16.834C23.8938 16.834 23.6421 16.7297 23.4565 16.5441C23.271 16.3586 23.1667 16.1069 23.1667 15.8444C23.1667 15.5819 23.271 15.3302 23.4565 15.1447C23.6421 14.9591 23.8938 14.8548 24.1563 14.8548ZM20 16.0423C21.0499 16.0423 22.0567 16.4594 22.799 17.2017C23.5413 17.944 23.9584 18.9508 23.9584 20.0007C23.9584 21.0505 23.5413 22.0573 22.799 22.7996C22.0567 23.5419 21.0499 23.959 20 23.959C18.9502 23.959 17.9434 23.5419 17.2011 22.7996C16.4587 22.0573 16.0417 21.0505 16.0417 20.0007C16.0417 18.9508 16.4587 17.944 17.2011 17.2017C17.9434 16.4594 18.9502 16.0423 20 16.0423M20 17.6257C19.3702 17.6257 18.7661 17.8759 18.3207 18.3213C17.8753 18.7667 17.625 19.3708 17.625 20.0007C17.625 20.6305 17.8753 21.2346 18.3207 21.68C18.7661 22.1254 19.3702 22.3757 20 22.3757C20.6299 22.3757 21.234 22.1254 21.6794 21.68C22.1248 21.2346 22.375 20.6305 22.375 20.0007C22.375 19.3708 22.1248 18.7667 21.6794 18.3213C21.234 17.8759 20.6299 17.6257 20 17.6257Z" fill="white"/>
<rect x="0.5" y="0.5" width="39" height="39" rx="19.5" stroke="white"/>
</svg>
