<svg width="257" height="75" viewBox="0 0 257 75" fill="none" xmlns="http://www.w3.org/2000/svg">
<path fill-rule="evenodd" clip-rule="evenodd" d="M0 21.8198V22.0102L43.2788 42.33L86.7124 21.9421V21.891L43.2788 1.5L0 21.8198ZM15.6036 21.9158L43.2788 8.92068L70.9601 21.9158L43.2788 34.9093L15.602 21.9158H15.6036ZM43.2788 50.2227L0 30.2077V37.6114L43.2788 57.6743L86.7124 37.5418V30.1381L43.2788 50.2227ZM43.2788 65.2389L0 45.2194V52.6215L43.2788 72.689L86.7124 52.5549V45.1513L43.2788 65.2389V65.2389Z" fill="white"/>
<mask id="mask0_373_209" style="mask-type:alpha" maskUnits="userSpaceOnUse" x="111" y="0" width="146" height="75">
<path d="M111.509 0H257V74.733H111.511L111.509 0Z" fill="#FEFFFD"/>
</mask>
<g mask="url(#mask0_373_209)">
<path fill-rule="evenodd" clip-rule="evenodd" d="M247.068 37.3305C247.094 34.1344 245.897 31.0492 243.722 28.7058C242.699 27.6098 241.467 26.7295 240.099 26.1167C238.711 25.4947 237.206 25.1775 235.686 25.1866C234.122 25.1866 232.649 25.4961 231.269 26.1167C229.901 26.7294 228.669 27.6098 227.646 28.7058C225.472 31.05 224.275 34.1357 224.302 37.3321C224.276 40.5279 225.472 43.6129 227.646 45.9568C228.669 47.0522 229.901 47.932 231.269 48.5443C232.657 49.1671 234.163 49.4848 235.684 49.476C237.248 49.476 238.719 49.1665 240.1 48.5443C241.468 47.9318 242.699 47.052 243.722 45.9568C245.897 43.6127 247.093 40.527 247.067 37.3305H247.068ZM257.001 37.3305C257.001 40.3204 256.449 43.0922 255.345 45.6457C254.285 48.1351 252.737 50.3872 250.792 52.2694C248.861 54.1342 246.596 55.606 243.998 56.6862C241.399 57.7679 238.628 58.3081 235.684 58.3081C232.742 58.3081 229.981 57.7679 227.406 56.6862C224.891 55.6445 222.596 54.1341 220.646 52.2353C218.705 50.3365 217.158 48.0741 216.093 45.5776C214.989 43.0241 214.436 40.2756 214.436 37.3305C214.436 34.4319 215 31.7066 216.127 29.1531C217.218 26.6518 218.775 24.3804 220.714 22.4597C222.657 20.5429 224.953 19.0199 227.476 17.9748C230.075 16.889 232.867 16.3374 235.684 16.353C238.628 16.353 241.398 16.8946 243.998 17.9748C246.596 19.055 248.86 20.5283 250.792 22.3916C252.725 24.2549 254.242 26.4742 255.345 29.0494C256.449 31.6261 257.001 34.387 257.001 37.3305V37.3305ZM210.987 57.0669C210.135 57.4586 209.245 57.7595 208.331 57.9645C207.343 58.1935 206.318 58.3081 205.262 58.3081C203.827 58.3132 202.399 58.1157 201.019 57.7215C199.71 57.3563 198.497 56.7087 197.466 55.8242C196.454 54.9498 195.649 53.8123 195.05 52.4087C194.454 51.005 194.155 49.3135 194.155 47.3372V-0.00195312H204.296V45.6116C204.296 47.2676 204.629 48.4066 205.296 49.0272C205.962 49.6478 206.756 49.9588 207.676 49.9588C208.825 49.9588 209.929 49.6137 210.987 48.9235V57.0669V57.0669ZM189.671 17.3171L171.734 64.7259C170.4 68.2683 168.652 70.8218 166.491 72.3865C164.329 73.9495 161.752 74.7311 158.764 74.7311C158.304 74.7311 157.799 74.697 157.247 74.6289C156.711 74.563 156.18 74.459 155.659 74.3178L152.349 65.071C153.124 65.4364 153.933 65.7251 154.764 65.933C155.591 66.1404 156.373 66.2441 157.109 66.2441C158.673 66.2441 160.097 65.8881 161.385 65.1747C162.674 64.4628 163.662 63.1396 164.352 61.2067L165.732 57.2046L150.348 17.3186H161.18L170.354 42.99L178.979 17.3186H189.671V17.3171ZM147.934 11.3156H121.995V24.1512H147.589V32.8456H121.993V57.2727H111.51V2.13836H147.936V11.3156H147.934Z" fill="white"/>
</g>
</svg>
